<svg width="480" height="512" viewBox="0 0 480 512" fill="none" xmlns="http://www.w3.org/2000/svg">
<path d="M3.00757 219.8C11.4743 240.678 35.2515 250.684 56.1159 242.148C76.9759 233.598 87.022 209.745 78.5553 188.866C70.0929 167.979 46.3027 157.978 25.4512 166.51C4.58253 175.055 -5.46782 198.917 3.00757 219.8ZM118.955 244.131C122.522 232.802 123.454 220.81 121.002 209.192L112.835 170.639C108.626 150.758 97.2251 132.96 80.4267 121.575C76.4267 118.872 72.6723 115.684 69.237 112.014C43.468 84.5163 45.6562 40.7903 74.6485 15.9065C100.529 -6.30537 139.523 -5.11683 163.908 18.6072C196.765 50.554 181.467 86.3525 168.16 105.911C160.698 116.892 158.118 130.466 160.867 143.445L167.753 175.991C172.04 196.266 194.567 206.678 212.798 196.833L233.945 185.406C258.827 171.954 276.745 148.781 284.658 121.588C288.686 107.756 296.35 94.7828 307.599 84.1933C341.579 52.2136 395.213 54.3141 426.404 89.2345C455.345 121.632 453.309 174.449 421.975 204.694C399.269 226.613 367.477 233.031 339.512 224.325C312.663 215.976 283.604 218.375 258.813 231.774L218.674 253.464C208.044 259.204 198.963 267.515 192.631 277.806C190.775 280.838 188.495 283.655 185.789 286.2C173.867 297.423 157.017 300.094 142.782 294.466L138.64 292.544C134.803 290.501 131.215 287.814 128.077 284.461C117.618 273.305 114.645 257.793 118.955 244.131Z" fill="url(#paint0_linear_10476_853)"/>
<path d="M731.46 323.502C739.927 344.38 763.704 354.386 784.573 345.841C805.424 337.309 815.475 313.447 807.008 292.568C798.537 271.677 774.768 261.675 753.899 270.22C733.035 278.756 722.989 302.61 731.46 323.502ZM697.032 267.36C692.883 278.493 691.353 290.433 693.205 302.158L699.393 341.088C702.583 361.165 713.056 379.525 729.253 391.75C733.1 394.66 736.696 398.041 739.93 401.882C764.26 430.664 759.84 474.225 729.627 497.59C702.649 518.451 663.775 515.263 640.624 490.327C609.453 456.741 626.548 421.76 640.837 402.904C648.857 392.322 652.132 378.891 650.043 365.79L644.828 332.923C641.578 312.461 619.622 300.893 600.913 309.795L579.221 320.128C553.68 332.28 534.608 354.528 525.322 381.271C520.582 394.887 512.273 407.44 500.501 417.442C464.93 447.649 411.485 442.807 382.125 406.328C354.877 372.478 359.603 319.833 392.431 291.228C416.234 270.487 448.3 265.721 475.796 275.838C502.171 285.562 531.312 284.657 556.75 272.541L597.943 252.936C608.839 247.755 618.328 239.911 625.178 229.947C627.192 227.034 629.611 224.328 632.441 221.929C644.919 211.331 661.883 209.513 675.806 215.873L679.851 217.996C683.578 220.244 687.026 223.111 689.979 226.621C699.859 238.306 702.029 253.945 697.032 267.36Z" fill="url(#paint1_linear_10476_853)"/>
<defs>
<linearGradient id="paint0_linear_10476_853" x1="-9.96409" y1="177.665" x2="760.96" y2="388.744" gradientUnits="userSpaceOnUse">
<stop stop-color="white" stop-opacity="0.652873"/>
<stop offset="0.403152" stop-color="#C7C7C7" stop-opacity="0.779455"/>
<stop offset="0.541007" stop-color="#EBEBEB" stop-opacity="0.692871"/>
<stop offset="0.819808" stop-color="#A4A4A4" stop-opacity="0.645026"/>
<stop offset="1" stop-opacity="0"/>
</linearGradient>
<linearGradient id="paint1_linear_10476_853" x1="-9.96409" y1="177.665" x2="760.96" y2="388.744" gradientUnits="userSpaceOnUse">
<stop stop-color="white" stop-opacity="0.652873"/>
<stop offset="0.403152" stop-color="#C7C7C7" stop-opacity="0.779455"/>
<stop offset="0.541007" stop-color="#EBEBEB" stop-opacity="0.692871"/>
<stop offset="0.819808" stop-color="#A4A4A4" stop-opacity="0.645026"/>
<stop offset="1" stop-opacity="0"/>
</linearGradient>
</defs>
</svg>
