<svg width="389" height="627" viewBox="0 0 389 627" fill="none" xmlns="http://www.w3.org/2000/svg">
<path d="M259.514 0.908762C237.481 -3.80122 215.856 10.2629 211.211 32.3224C206.58 54.3856 220.685 76.0876 242.717 80.7976C264.754 85.5159 286.383 71.4386 291.024 49.3923C295.664 27.3243 281.554 5.61391 259.514 0.908762ZM174.303 83.2193C181.678 92.5296 191.08 100.031 202.072 104.521L238.564 119.399C257.382 127.073 278.51 127.626 297.361 120.112C301.844 118.318 306.59 117 311.554 116.216C348.776 110.321 383.738 136.672 388.062 174.633C391.922 208.519 369.053 240.126 335.733 246.994C290.851 256.26 269.808 223.507 261.088 201.517C256.187 189.178 246.401 179.424 234.115 174.415L203.314 161.849C184.127 154.019 162.866 166.82 160.783 187.434L158.372 211.35C155.542 239.493 164.666 267.329 182.731 289.14C191.919 300.236 198.355 313.86 200.806 329.114C208.205 375.186 176.365 418.398 129.958 424.615C86.9014 430.387 44.3296 399.059 36.8813 356.151C31.4836 325.056 44.0138 295.141 66.9146 276.882C88.8925 259.346 103.215 233.948 106.039 205.91L110.614 160.515C111.829 148.496 110.047 136.315 105.083 125.299C103.615 122.061 102.563 118.593 101.975 114.925C99.3774 98.7594 106.623 83.3142 119.271 74.691L123.186 72.3409C127.03 70.312 131.268 68.8501 135.804 68.1348C150.908 65.7395 165.415 71.9842 174.303 83.2193Z" fill="url(#paint0_linear_10476_854)"/>
<path d="M-235.141 545.623C-257.173 540.913 -278.799 554.977 -283.438 577.045C-288.079 599.092 -273.97 620.802 -251.938 625.512C-229.892 630.225 -208.275 616.166 -203.635 594.098C-198.991 572.039 -213.096 550.337 -235.141 545.623ZM-169.353 548.636C-176.239 538.954 -185.262 530.987 -196.006 525.939L-231.7 509.213C-250.108 500.585 -271.181 498.949 -290.39 505.494C-294.957 507.045 -299.773 508.124 -304.767 508.645C-342.244 512.628 -375.817 484.523 -378.2 446.404C-380.325 412.367 -355.869 381.982 -322.237 376.815C-276.945 369.865 -257.587 403.646 -249.999 426.055C-245.743 438.632 -236.464 448.88 -224.449 454.504L-194.32 468.633C-175.559 477.427 -153.663 465.747 -150.531 445.266L-146.909 421.513C-142.633 393.554 -150.343 365.283 -167.266 342.588C-175.875 331.024 -181.601 317.101 -183.273 301.745C-188.311 255.352 -154.308 213.835 -107.638 210.007C-64.3298 206.452 -23.4104 239.909 -18.1585 283.134C-14.3502 314.475 -28.4016 343.689 -52.2067 360.769C-75.0577 377.142 -90.6634 401.768 -94.9115 429.622L-101.803 474.719C-103.631 486.645 -102.464 498.901 -98.0618 510.162C-96.781 513.464 -95.8988 516.985 -95.5007 520.673C-93.7331 536.949 -101.748 552.01 -114.827 559.964L-118.854 562.121C-122.805 563.943 -127.113 565.188 -131.676 565.662C-146.893 567.282 -161.054 560.301 -169.353 548.636Z" fill="url(#paint1_linear_10476_854)"/>
<defs>
<linearGradient id="paint0_linear_10476_854" x1="301.667" y1="13.8194" x2="-305.696" y2="533.423" gradientUnits="userSpaceOnUse">
<stop stop-color="white" stop-opacity="0.652873"/>
<stop offset="0.403152" stop-color="#C7C7C7" stop-opacity="0.779455"/>
<stop offset="0.541007" stop-color="#EBEBEB" stop-opacity="0.692871"/>
<stop offset="0.819808" stop-color="#A4A4A4" stop-opacity="0.645026"/>
<stop offset="1" stop-opacity="0"/>
</linearGradient>
<linearGradient id="paint1_linear_10476_854" x1="301.667" y1="13.8194" x2="-305.696" y2="533.423" gradientUnits="userSpaceOnUse">
<stop stop-color="white" stop-opacity="0.652873"/>
<stop offset="0.403152" stop-color="#C7C7C7" stop-opacity="0.779455"/>
<stop offset="0.541007" stop-color="#EBEBEB" stop-opacity="0.692871"/>
<stop offset="0.819808" stop-color="#A4A4A4" stop-opacity="0.645026"/>
<stop offset="1" stop-opacity="0"/>
</linearGradient>
</defs>
</svg>
