<svg width="114" height="321" viewBox="0 0 114 321" fill="none" xmlns="http://www.w3.org/2000/svg">
<path d="M1.16858 38.9375C-2.17552 47.2974 1.90272 56.766 10.2779 60.0861C18.6553 63.4012 28.1566 59.3122 31.5007 50.9522C34.8484 42.591 30.7652 33.1202 22.3951 29.8023C14.0163 26.4836 4.51134 30.574 1.16858 38.9375ZM27.8313 78.0634C31.9969 75.7877 35.5871 72.5913 38.0985 68.565L46.4247 55.1966C50.7192 48.3031 52.3645 40.0182 50.6788 32.0854C50.2754 30.1985 50.0769 28.2402 50.1035 26.2316C50.2967 11.1722 63.0388 -0.818314 78.2835 0.0437687C91.8917 0.813631 102.796 11.9571 103.249 25.5457C103.866 43.8502 89.5429 49.9256 80.292 51.874C75.1006 52.9707 70.5973 56.1663 67.7943 60.667L60.7632 71.9501C56.3823 78.9784 59.9877 88.2177 67.9667 90.4313L77.2239 92.9971C88.1179 96.0136 99.6985 94.3012 109.51 88.6593C114.502 85.7903 120.303 84.1758 126.477 84.2411C145.124 84.4405 159.993 99.9018 159.306 118.601C158.67 135.951 143.453 150.602 126.049 150.636C113.436 150.661 102.5 143.704 96.8555 133.45C91.4334 123.608 82.3976 116.25 71.5444 113.243L53.9732 108.373C49.321 107.082 44.4027 106.961 39.7283 108.172C38.3535 108.531 36.9166 108.711 35.432 108.695C28.889 108.626 23.295 104.728 20.7531 99.1636L20.0921 97.4625C19.5526 95.8114 19.2632 94.0431 19.288 92.2084C19.3652 86.0973 22.8053 80.8051 27.8313 78.0634Z" fill="url(#paint0_linear_10476_855)"/>
<path d="M182.297 270.587C178.953 278.947 183.031 288.415 191.41 291.734C199.78 295.052 209.285 290.961 212.629 282.601C215.976 274.237 211.899 264.772 203.52 261.453C195.145 258.133 185.643 262.222 182.297 270.587ZM187.929 244.877C183.65 246.935 179.903 249.951 177.188 253.842L168.188 266.771C163.546 273.438 161.477 281.628 162.757 289.637C163.059 291.54 163.159 293.51 163.027 295.513C162.063 310.543 148.724 321.868 133.548 320.231C119.998 318.768 109.682 307.081 109.92 293.485C110.243 275.175 124.857 269.833 134.196 268.359C139.438 267.532 144.102 264.57 147.129 260.217L154.73 249.305C159.462 242.51 156.341 233.096 148.485 230.478L139.374 227.446C128.65 223.872 116.994 224.999 106.911 230.131C101.774 232.74 95.9033 234.055 89.7416 233.676C71.1273 232.525 57.0721 216.326 58.7183 197.685C60.2447 180.386 76.1884 166.529 93.569 167.381C106.171 167.999 116.729 175.508 121.848 186.039C126.752 196.146 135.398 203.957 146.082 207.513L163.38 213.275C167.953 214.801 172.86 215.169 177.593 214.197C178.98 213.915 180.427 213.806 181.906 213.898C188.436 214.302 193.827 218.476 196.076 224.166L196.654 225.897C197.105 227.577 197.304 229.358 197.182 231.187C196.792 237.29 193.085 242.397 187.929 244.877Z" fill="url(#paint1_linear_10476_855)"/>
<defs>
<linearGradient id="paint0_linear_10476_855" x1="9.10256" y1="23.2064" x2="172.724" y2="297.553" gradientUnits="userSpaceOnUse">
<stop stop-color="white" stop-opacity="0.652873"/>
<stop offset="0.403152" stop-color="#C7C7C7" stop-opacity="0.779455"/>
<stop offset="0.541007" stop-color="#EBEBEB" stop-opacity="0.692871"/>
<stop offset="0.819808" stop-color="#A4A4A4" stop-opacity="0.645026"/>
<stop offset="1" stop-opacity="0"/>
</linearGradient>
<linearGradient id="paint1_linear_10476_855" x1="9.10256" y1="23.2064" x2="172.724" y2="297.553" gradientUnits="userSpaceOnUse">
<stop stop-color="white" stop-opacity="0.652873"/>
<stop offset="0.403152" stop-color="#C7C7C7" stop-opacity="0.779455"/>
<stop offset="0.541007" stop-color="#EBEBEB" stop-opacity="0.692871"/>
<stop offset="0.819808" stop-color="#A4A4A4" stop-opacity="0.645026"/>
<stop offset="1" stop-opacity="0"/>
</linearGradient>
</defs>
</svg>
