<svg width="95" height="196" viewBox="0 0 95 196" fill="none" xmlns="http://www.w3.org/2000/svg">
<path d="M1.72879 13.0707C-1.33691 17.506 -0.216992 23.577 4.23037 26.6307C8.67973 29.6818 14.7713 28.56 17.837 24.1247C20.905 19.6891 19.7825 13.6161 15.3377 10.5644C10.8881 7.51094 4.7942 8.63311 1.72879 13.0707ZM12.0841 39.4639C14.8191 38.6901 17.3408 37.3021 19.3433 35.286L25.9846 28.5902C29.4098 25.1376 31.4738 20.5199 31.5462 15.6641C31.562 14.5088 31.7069 13.339 31.9899 12.1699C34.1083 3.40373 43.1442 -1.8995 51.9295 0.63408C59.7716 2.89587 64.6536 10.8538 63.1085 18.8474C61.0308 29.616 51.8596 31.2553 46.1994 31.1608C43.0225 31.1097 39.9678 32.3756 37.732 34.6299L32.1245 40.2807C28.6308 43.8005 29.5052 49.6747 33.8686 52.0297L38.9314 54.7605C44.8897 57.9725 51.8787 58.515 58.3584 56.5279C61.6546 55.5177 65.2566 55.3478 68.8524 56.2082C79.7122 58.808 86.3339 69.8148 83.4423 80.6403C80.7603 90.6845 69.9253 97.2116 59.7599 94.9137C52.3931 93.2483 46.9349 87.7302 45.0051 80.9919C43.1504 74.5239 38.8551 69.0249 32.9192 65.824L23.3095 60.6407C20.7654 59.2675 17.9102 58.5419 15.0199 58.6262C14.1694 58.6528 13.3066 58.5667 12.442 58.3594C8.63133 57.4476 5.88454 54.427 5.14166 50.8398L4.98226 49.7587C4.88724 48.7229 4.95378 47.652 5.21256 46.5842C6.07154 43.0267 8.78471 40.3952 12.0841 39.4639Z" fill="url(#paint0_linear_10476_849)"/>
<path d="M76.6233 172.434C73.5576 176.869 74.6775 182.94 79.1272 185.993C83.5719 189.045 89.6658 187.923 92.7315 183.488C95.7992 179.05 94.6796 172.981 90.23 169.928C85.7826 166.874 79.691 167.996 76.6233 172.434ZM83.3356 158.174C80.5634 158.806 77.9737 160.067 75.8709 161.977L68.8944 168.327C65.2962 171.601 62.9978 176.107 62.6785 180.953C62.6014 182.105 62.3971 183.268 62.0533 184.419C59.4888 193.066 50.1931 197.901 41.5513 194.924C33.8354 192.265 29.3692 184.069 31.3188 176.163C33.9459 165.516 43.1895 164.344 48.8382 164.727C52.0084 164.942 55.1257 163.834 57.4726 161.696L63.3638 156.338C67.031 153.001 66.4629 147.089 62.2253 144.514L57.3098 141.531C51.525 138.016 44.5697 137.122 37.9998 138.775C34.6533 139.614 31.0507 139.6 27.5038 138.558C16.7899 135.407 10.7415 124.078 14.1853 113.414C17.3803 103.518 28.5339 97.5517 38.5674 100.364C45.8424 102.403 51.0062 108.193 52.5921 115.023C54.1095 121.577 58.1166 127.288 63.8806 130.787L73.2118 136.455C75.6788 137.955 78.4941 138.823 81.3871 138.886C82.2344 138.906 83.0934 139.035 83.9449 139.286C87.7036 140.391 90.2948 143.546 90.8502 147.167L90.9567 148.255C90.9962 149.296 90.8752 150.362 90.5605 151.414C89.52 154.925 86.6758 157.413 83.3356 158.174Z" fill="url(#paint1_linear_10476_849)"/>
<defs>
<linearGradient id="paint0_linear_10476_849" x1="8.45584" y1="4.94325" x2="67.4429" y2="186.902" gradientUnits="userSpaceOnUse">
<stop stop-color="white"/>
<stop offset="0.853177" stop-opacity="0"/>
</linearGradient>
<linearGradient id="paint1_linear_10476_849" x1="8.45584" y1="4.94325" x2="67.4429" y2="186.902" gradientUnits="userSpaceOnUse">
<stop stop-color="white"/>
<stop offset="0.853177" stop-opacity="0"/>
</linearGradient>
</defs>
</svg>
