<svg width="87" height="166" viewBox="0 0 87 166" fill="none" xmlns="http://www.w3.org/2000/svg">
<path d="M38.6679 1.13393C34.7281 3.43748 33.4126 8.4947 35.7297 12.4296C38.0493 16.3633 43.123 17.6847 47.0628 15.3812C51.0044 13.0782 52.3187 8.01853 50.0029 4.08606C47.6839 0.150521 42.6083 -1.17149 38.6679 1.13393ZM37.1566 25.0849C39.5313 25.4711 41.9625 25.3097 44.2203 24.4807L51.7121 21.7242C55.5756 20.3031 58.8125 17.5008 60.6072 13.8026C61.0331 12.9222 61.5632 12.077 62.199 11.2817C66.9635 5.31733 75.793 4.48646 81.6233 9.5762C86.8277 14.1197 87.7216 21.9715 83.6735 27.5487C78.223 35.0634 70.6021 33.0359 66.2949 30.936C63.8767 29.7589 61.0805 29.6357 58.5584 30.5638L52.2338 32.8892C48.2936 34.3374 46.8603 39.1557 49.3633 42.5247L52.2681 46.4324C55.6873 51.0299 60.8531 53.9493 66.5344 54.7461C69.4242 55.1519 72.2476 56.3117 74.6972 58.2595C82.0948 64.143 83.231 74.9564 77.1359 82.2232C71.4814 88.9658 60.8338 90.091 53.8606 84.6876C48.8072 80.7719 46.5975 74.5848 47.531 68.7257C48.4251 63.1009 47.1005 57.345 43.6945 52.7641L38.1809 45.3468C36.7215 43.3825 34.7916 41.8033 32.5448 40.8328C31.883 40.5486 31.2521 40.1735 30.6633 39.7048C28.0673 37.6406 27.0425 34.3402 27.7576 31.323L28.0226 30.4367C28.3207 29.6083 28.7553 28.8109 29.3362 28.0846C31.2692 25.6638 34.2926 24.6174 37.1566 25.0849Z" fill="url(#paint0_linear_10476_848)"/>
<path d="M39.0285 150.181C35.0887 152.484 33.7732 157.542 36.0921 161.477C38.408 165.41 43.4835 166.732 47.4233 164.428C51.3656 162.123 52.6806 157.068 50.3616 153.132C48.0445 149.197 42.9708 147.876 39.0285 150.181ZM49.2837 141.649C46.9314 141.14 44.4935 141.18 42.1966 141.892L34.5718 144.263C30.6395 145.485 27.2628 148.118 25.2823 151.72C24.8107 152.576 24.2373 153.395 23.5613 154.155C18.4974 159.868 9.6364 160.246 4.07498 154.868C-0.890426 150.065 -1.37997 142.179 2.94699 136.814C8.77503 129.59 16.2842 132.001 20.4792 134.319C22.8334 135.619 25.6212 135.886 28.1869 135.087L34.6244 133.087C38.6321 131.841 40.3138 127.104 37.9859 123.612L35.2846 119.563C32.1068 114.795 27.093 111.618 21.4621 110.533C18.5949 109.978 15.8371 108.676 13.49 106.607C6.40167 100.353 5.82066 89.498 12.2813 82.5529C18.2762 76.1075 28.9673 75.5266 35.6551 81.2772C40.5042 85.4468 42.3907 91.7368 41.1609 97.5429C39.9772 103.113 41.0047 108.929 44.1722 113.676L49.2986 121.365C50.6534 123.399 52.5015 125.074 54.6979 126.158C55.3404 126.477 55.9531 126.883 56.5163 127.381C59.0031 129.575 59.8602 132.923 58.9893 135.899L58.6813 136.771C58.3388 137.584 57.8642 138.358 57.2461 139.052C55.1905 141.372 52.1182 142.261 49.2837 141.649Z" fill="url(#paint1_linear_10476_848)"/>
<defs>
<linearGradient id="paint0_linear_10476_848" x1="46.7382" y1="-2.6899" x2="26.8056" y2="157.989" gradientUnits="userSpaceOnUse">
<stop stop-color="white"/>
<stop offset="0.853177" stop-opacity="0"/>
</linearGradient>
<linearGradient id="paint1_linear_10476_848" x1="46.7382" y1="-2.6899" x2="26.8056" y2="157.989" gradientUnits="userSpaceOnUse">
<stop stop-color="white"/>
<stop offset="0.853177" stop-opacity="0"/>
</linearGradient>
</defs>
</svg>
