<svg width="196" height="376" viewBox="0 0 196 376" fill="none" xmlns="http://www.w3.org/2000/svg">
<path d="M87.7861 2.57396C78.8417 7.8036 75.8551 19.2848 81.1155 28.2181C86.3816 37.1485 97.9002 40.1485 106.845 34.9189C115.793 29.6906 118.777 18.2038 113.519 9.27604C108.255 0.341378 96.7318 -2.65993 87.7861 2.57396ZM84.355 56.9488C89.7462 57.8255 95.2655 57.4592 100.391 55.5771L117.4 49.3191C126.171 46.0928 133.519 39.7309 137.594 31.3351C138.561 29.3363 139.764 27.4175 141.208 25.6121C152.024 12.0714 172.069 10.1851 185.306 21.7401C197.121 32.0549 199.15 49.8807 189.96 62.5423C177.586 79.6025 160.285 74.9995 150.506 70.2324C145.016 67.56 138.668 67.2804 132.942 69.3873L118.584 74.6666C109.639 77.9543 106.385 88.8931 112.067 96.5415L118.662 105.413C126.424 115.851 138.152 122.478 151.05 124.287C157.611 125.209 164.021 127.842 169.582 132.264C186.376 145.621 188.956 170.17 175.118 186.667C162.281 201.975 138.108 204.529 122.277 192.262C110.805 183.372 105.788 169.326 107.907 156.025C109.937 143.255 106.93 130.187 99.1976 119.788L86.6804 102.949C83.3673 98.4891 78.9859 94.9039 73.8851 92.7005C72.3825 92.0553 70.9502 91.2037 69.6134 90.1397C63.7199 85.4535 61.3935 77.9607 63.0169 71.1109L63.6184 69.0988C64.2953 67.218 65.2819 65.4076 66.6008 63.7588C70.9891 58.2631 77.8529 55.8874 84.355 56.9488Z" fill="url(#paint0_linear_10476_867)"/>
<path d="M88.6047 340.948C79.6603 346.178 76.6737 357.659 81.9384 366.594C87.1959 375.522 98.7188 378.523 107.663 373.293C116.613 368.061 119.598 356.584 114.334 347.649C109.073 338.716 97.5546 335.716 88.6047 340.948ZM111.887 321.579C106.546 320.424 101.012 320.515 95.7971 322.131L78.4868 327.513C69.5595 330.288 61.8936 336.265 57.3972 344.443C56.3266 346.385 55.0249 348.245 53.4901 349.97C41.9939 362.94 21.8771 363.8 9.25125 351.589C-2.02148 340.686 -3.13287 322.783 6.69042 310.603C19.9216 294.202 36.9694 299.677 46.4931 304.937C51.8377 307.89 58.1666 308.495 63.9914 306.681L78.6061 302.141C87.7047 299.313 91.5226 288.558 86.2377 280.629L80.105 271.438C72.8907 260.614 61.5081 253.401 48.7245 250.937C42.2152 249.678 35.9542 246.723 30.6259 242.025C14.5334 227.827 13.2144 203.183 27.8816 187.416C41.4916 172.783 65.7631 171.464 80.9461 184.52C91.955 193.986 96.2378 208.266 93.4457 221.447C90.7584 234.092 93.091 247.295 100.282 258.074L111.92 275.53C114.996 280.147 119.192 283.949 124.178 286.41C125.637 287.135 127.028 288.057 128.306 289.187C133.952 294.168 135.898 301.768 133.921 308.524L133.221 310.505C132.444 312.35 131.366 314.108 129.963 315.683C125.297 320.95 118.322 322.969 111.887 321.579Z" fill="url(#paint1_linear_10476_867)"/>
<defs>
<linearGradient id="paint0_linear_10476_867" x1="106.108" y1="-6.10711" x2="60.8554" y2="358.675" gradientUnits="userSpaceOnUse">
<stop stop-color="#30AB4C"/>
<stop offset="0.853177" stop-opacity="0"/>
</linearGradient>
<linearGradient id="paint1_linear_10476_867" x1="106.108" y1="-6.10711" x2="60.8554" y2="358.675" gradientUnits="userSpaceOnUse">
<stop stop-color="#30AB4C"/>
<stop offset="0.853177" stop-opacity="0"/>
</linearGradient>
</defs>
</svg>
