<svg width="235" height="451" viewBox="0 0 235 451" fill="none" xmlns="http://www.w3.org/2000/svg">
<path d="M105.177 3.08425C94.4612 9.34995 90.8829 23.1057 97.1854 33.8088C103.495 44.5084 117.295 48.1027 128.012 41.837C138.733 35.5729 142.308 21.8105 136.009 11.1141C129.701 0.409376 115.895 -3.18652 105.177 3.08425ZM101.067 68.2313C107.526 69.2817 114.139 68.8429 120.28 66.5879L140.658 59.0901C151.167 55.2247 159.971 47.6024 164.853 37.5432C166.011 35.1486 167.453 32.8495 169.182 30.6865C182.142 14.4632 206.158 12.2032 222.017 26.0474C236.173 38.4057 238.604 59.7629 227.593 74.933C212.768 95.373 192.039 89.8581 180.323 84.1465C173.746 80.9448 166.14 80.6097 159.28 83.1341L142.077 89.4592C131.36 93.3982 127.461 106.504 134.269 115.668L142.17 126.297C151.47 138.802 165.522 146.743 180.975 148.91C188.835 150.014 196.515 153.169 203.178 158.467C223.299 174.47 226.39 203.883 209.811 223.648C194.431 241.988 165.469 245.049 146.502 230.352C132.756 219.701 126.746 202.872 129.285 186.935C131.717 171.635 128.114 155.979 118.85 143.519L103.853 123.344C99.8833 118.001 94.6339 113.706 88.5225 111.066C86.7223 110.293 85.0062 109.272 83.4046 107.998C76.3436 102.383 73.5562 93.4059 75.5012 85.1991L76.222 82.7884C77.0329 80.535 78.2149 78.366 79.7951 76.3904C85.0528 69.806 93.2765 66.9597 101.067 68.2313Z" fill="url(#paint0_linear_10476_868)"/>
<path d="M106.158 408.494C95.4419 414.76 91.8636 428.516 98.1713 439.22C104.47 449.917 118.276 453.513 128.992 447.247C139.715 440.978 143.292 427.227 136.984 416.523C130.682 405.819 116.881 402.225 106.158 408.494ZM134.053 385.287C127.654 383.904 121.023 384.012 114.776 385.948L94.0359 392.397C83.3399 395.723 74.1554 402.883 68.7683 412.681C67.4855 415.008 65.926 417.236 64.0871 419.303C50.3134 434.843 26.2112 435.873 11.084 421.243C-2.42194 408.18 -3.7535 386.73 8.01589 372.137C23.8683 352.487 44.2935 359.046 55.7039 365.349C62.1074 368.887 69.6901 369.611 76.6688 367.438L94.1789 361.999C105.08 358.61 109.654 345.724 103.322 336.225L95.9747 325.213C87.3312 312.245 73.6935 303.603 58.3773 300.651C50.5786 299.142 43.0772 295.602 36.6932 289.973C17.4127 272.962 15.8323 243.436 33.4053 224.545C49.7115 207.014 78.7915 205.434 96.9825 221.075C110.172 232.417 115.304 249.526 111.958 265.318C108.739 280.469 111.533 296.287 120.149 309.201L134.093 330.116C137.778 335.648 142.805 340.203 148.779 343.151C150.527 344.019 152.193 345.125 153.725 346.478C160.489 352.446 162.821 361.552 160.452 369.647L159.614 372.02C158.683 374.23 157.392 376.336 155.71 378.224C150.119 384.534 141.763 386.953 134.053 385.287Z" fill="url(#paint1_linear_10476_868)"/>
<defs>
<linearGradient id="paint0_linear_10476_868" x1="127.129" y1="-7.31662" x2="72.9116" y2="429.733" gradientUnits="userSpaceOnUse">
<stop stop-color="#30AB4C"/>
<stop offset="0.853177" stop-opacity="0"/>
</linearGradient>
<linearGradient id="paint1_linear_10476_868" x1="127.129" y1="-7.31662" x2="72.9116" y2="429.733" gradientUnits="userSpaceOnUse">
<stop stop-color="#30AB4C"/>
<stop offset="0.853177" stop-opacity="0"/>
</linearGradient>
</defs>
</svg>
