<svg width="242" height="464" viewBox="0 0 242 464" fill="none" xmlns="http://www.w3.org/2000/svg">
<path d="M108.242 3.17391C97.2138 9.62219 93.5312 23.7788 100.017 34.7938C106.511 45.8052 120.713 49.5042 131.742 43.0559C142.776 36.6093 146.455 22.4458 139.972 11.4377C133.481 0.421087 119.273 -3.27959 108.242 3.17391ZM104.012 70.2194C110.659 71.3003 117.465 70.8487 123.785 68.5281L144.757 60.8117C155.572 56.8337 164.633 48.9893 169.657 38.637C170.849 36.1726 172.333 33.8065 174.112 31.5805C187.45 14.8844 212.166 12.5586 228.486 26.8062C243.055 39.5246 245.557 61.5042 234.225 77.1163C218.968 98.152 197.635 92.4763 185.578 86.5983C178.809 83.3033 170.981 82.9585 163.921 85.5564L146.217 92.0658C135.187 96.1196 131.175 109.607 138.182 119.038L146.313 129.977C155.884 142.847 170.345 151.019 186.248 153.249C194.338 154.385 202.241 157.632 209.098 163.084C229.806 179.554 232.987 209.823 215.925 230.165C200.096 249.04 170.291 252.19 150.771 237.064C136.625 226.103 130.439 208.783 133.052 192.382C135.555 176.637 131.847 160.524 122.313 147.701L106.879 126.938C102.794 121.44 97.3916 117.019 91.1021 114.302C89.2494 113.507 87.4833 112.456 85.835 111.145C78.5682 105.366 75.6997 96.1276 77.7013 87.6816L78.4431 85.2007C79.2776 82.8816 80.4941 80.6493 82.1204 78.6162C87.5313 71.84 95.9945 68.9107 104.012 70.2194Z" fill="url(#paint0_linear_10476_870)"/>
<path d="M109.252 420.398C98.2231 426.846 94.5405 441.003 101.032 452.019C107.515 463.027 121.723 466.728 132.751 460.28C143.787 453.828 147.468 439.676 140.976 428.66C134.49 417.645 120.287 413.946 109.252 420.398ZM137.959 396.514C131.374 395.091 124.55 395.202 118.12 397.195L96.7762 403.832C85.7685 407.254 76.3163 414.623 70.7722 424.706C69.4521 427.101 67.8471 429.394 65.9546 431.521C51.7795 447.514 26.975 448.574 11.407 433.518C-2.49251 420.074 -3.86288 397.999 8.24947 382.98C24.5638 362.758 45.5842 369.509 57.3271 375.995C63.9172 379.636 71.7209 380.382 78.903 378.145L96.9233 372.547C108.142 369.06 112.85 355.799 106.333 346.023L98.7714 334.689C89.876 321.344 75.8409 312.449 60.0785 309.412C52.0524 307.858 44.3325 304.215 37.7624 298.423C17.9201 280.916 16.2937 250.53 34.3787 231.088C51.1601 213.046 81.0875 211.42 99.8085 227.517C113.383 239.189 118.664 256.797 115.221 273.049C111.907 288.641 114.783 304.921 123.65 318.211L138.001 339.735C141.793 345.429 146.967 350.116 153.115 353.151C154.913 354.044 156.628 355.182 158.205 356.574C165.166 362.716 167.566 372.088 165.128 380.418L164.265 382.861C163.307 385.135 161.978 387.302 160.248 389.245C154.494 395.74 145.894 398.228 137.959 396.514Z" fill="url(#paint1_linear_10476_870)"/>
<defs>
<linearGradient id="paint0_linear_10476_870" x1="130.833" y1="-7.53005" x2="75.0362" y2="442.255" gradientUnits="userSpaceOnUse">
<stop stop-color="#30AB4C"/>
<stop offset="0.853177" stop-opacity="0"/>
</linearGradient>
<linearGradient id="paint1_linear_10476_870" x1="130.833" y1="-7.53005" x2="75.0362" y2="442.255" gradientUnits="userSpaceOnUse">
<stop stop-color="#30AB4C"/>
<stop offset="0.853177" stop-opacity="0"/>
</linearGradient>
</defs>
</svg>
