<svg width="292" height="443" viewBox="0 0 292 443" fill="none" xmlns="http://www.w3.org/2000/svg">
<path d="M1.69397 52.6568C-3.02968 64.1366 2.46424 77.2454 13.9653 81.9362C25.4697 86.6201 38.6238 81.1118 43.3475 69.632C48.0762 58.1504 42.5754 45.0383 31.0811 40.3508C19.575 35.6618 6.41581 41.172 1.69397 52.6568ZM37.921 106.958C43.6947 103.877 48.6875 99.5194 52.2045 94.0028L63.8645 75.6857C69.8784 66.2406 72.2591 54.8411 70.0427 43.8819C69.5122 41.2751 69.2651 38.5726 69.3291 35.804C69.7997 15.0453 87.5288 -1.31219 108.534 0.0830799C127.284 1.32901 142.166 16.8396 142.606 35.5793C143.208 60.8226 123.38 69.0039 110.6 71.5646C103.428 73.0061 97.1762 77.3506 93.2508 83.5173L83.4046 98.9769C77.2697 108.607 82.1148 121.393 93.0848 124.553L105.812 128.216C120.79 132.523 136.778 130.319 150.382 122.674C157.302 118.786 165.322 116.639 173.833 116.813C199.537 117.341 219.826 138.858 218.625 164.628C217.513 188.538 196.336 208.53 172.342 208.341C154.953 208.204 139.971 198.465 132.328 184.251C124.986 170.609 112.629 160.343 97.7076 156.051L73.5496 149.098C67.1536 147.256 60.3748 147.022 53.9142 148.628C52.0139 149.105 50.0305 149.334 47.984 149.291C38.9646 149.107 31.3055 143.657 27.8767 135.951L26.9884 133.597C26.2672 131.314 25.8922 128.872 25.9511 126.343C26.1405 117.919 30.9549 110.67 37.921 106.958Z" fill="url(#paint0_linear_10476_869)"/>
<path d="M248.259 374.47C243.536 385.95 249.029 399.059 260.536 403.748C272.03 408.435 285.189 402.925 289.913 391.445C294.64 379.959 289.147 366.855 277.641 362.166C266.14 357.475 252.986 362.984 248.259 374.47ZM256.373 339.103C250.446 341.882 245.238 345.989 241.444 351.316L228.86 369.018C222.37 378.147 219.407 389.41 221.062 400.468C221.453 403.096 221.564 405.814 221.354 408.572C219.822 429.281 201.279 444.713 180.379 442.249C161.719 440.048 147.656 423.797 148.168 405.056C148.862 379.819 169.082 372.652 181.977 370.747C189.214 369.678 195.684 365.657 199.916 359.698L210.544 344.757C217.159 335.453 212.984 322.432 202.19 318.717L189.67 314.413C174.934 309.341 158.849 310.736 144.879 317.674C137.762 321.202 129.651 322.935 121.161 322.329C95.5147 320.489 76.3576 297.967 78.8799 272.29C81.2189 248.462 103.387 229.575 127.337 230.986C144.702 232.008 159.155 242.504 166.069 257.091C172.694 271.091 184.507 281.977 199.188 287.024L222.957 295.203C229.241 297.368 236 297.943 242.539 296.666C244.455 296.297 246.451 296.165 248.489 296.313C257.487 296.958 264.862 302.786 267.885 310.66L268.658 313.055C269.257 315.377 269.507 317.835 269.314 320.355C268.694 328.764 263.514 335.753 256.373 339.103Z" fill="url(#paint1_linear_10476_869)"/>
<defs>
<linearGradient id="paint0_linear_10476_869" x1="12.8453" y1="31.0771" x2="234.695" y2="411.517" gradientUnits="userSpaceOnUse">
<stop stop-color="#30AB4C"/>
<stop offset="0.853177" stop-opacity="0"/>
</linearGradient>
<linearGradient id="paint1_linear_10476_869" x1="12.8453" y1="31.0771" x2="234.695" y2="411.517" gradientUnits="userSpaceOnUse">
<stop stop-color="#30AB4C"/>
<stop offset="0.853177" stop-opacity="0"/>
</linearGradient>
</defs>
</svg>
